<?xml version="1.0" encoding="UTF-8" standalone="no" ?>
<!DOCTYPE svg PUBLIC "-//W3C//DTD SVG 1.1//EN" "http://www.w3.org/Graphics/SVG/1.1/DTD/svg11.dtd">
<svg xmlns="http://www.w3.org/2000/svg" xmlns:xlink="http://www.w3.org/1999/xlink" version="1.1" width="1080" height="1080" viewBox="0 0 1080 1080" xml:space="preserve">
<desc>Created with Fabric.js 5.2.4</desc>
<defs>
</defs>
<g transform="matrix(1 0 0 1 540 540)" id="f12378b3-a217-4043-b0fc-16930f073c6b"  >
<rect style="stroke: none; stroke-width: 1; stroke-dasharray: none; stroke-linecap: butt; stroke-dashoffset: 0; stroke-linejoin: miter; stroke-miterlimit: 4; fill: rgb(255,255,255); fill-rule: nonzero; opacity: 1; visibility: hidden;" vector-effect="non-scaling-stroke"  x="-540" y="-540" rx="0" ry="0" width="1080" height="1080" />
</g>
<g transform="matrix(1 0 0 1 540 540)" id="dcea1931-0f5e-491c-9ade-fab39db5ad97"  >
</g>
<g transform="matrix(0.29 0 0 0.29 540 540)"  >
<g style=""   >
		<g transform="matrix(1 0 0 1 -1104.85 20.75)" id="Layer_1"  >
<path style="stroke: none; stroke-width: 1; stroke-dasharray: none; stroke-linecap: butt; stroke-dashoffset: 0; stroke-linejoin: miter; stroke-miterlimit: 4; fill: rgb(255,255,255); fill-rule: nonzero; opacity: 1;" vector-effect="non-scaling-stroke"  transform=" translate(-751.65, -273.15)" d="M 724.39978 498.70001 C 700.2998 498.70001 676.09979 498 652.2998 496.40002000000004 C 627.19982 494.70001 602.19982 491.20001 577.59979 486.00003000000004 L 577.59979 59 C 597.7998 55.1 620.2998 52.5 644.49981 50.5 C 668.59979 48.5 691.09979 47.6 711.99981 47.6 C 740.09979 47.6 765.7998 49.6 789.2998 53.800000000000004 C 812.7998 57.7 832.99981 64.60000000000001 849.99981 74.30000000000001 C 866.99981 84.10000000000001 880.2998 96.80000000000001 889.7998 112.80000000000001 C 899.2998 128.8 904.19982 148.39999 904.19982 171.5 C 904.19982 206.7 887.19982 234.39999 853.2998 254.7 C 881.39978 265.10001 900.2998 279.79999 910.39978 297.79999 C 920.4997599999999 316.09997999999996 925.69977 336.59997999999996 925.69977 359.4 C 925.69977 405.69998999999996 908.69977 440.29999 875.09979 463.50001 C 840.89978 487.29999 790.99976 498.70001 724.39978 498.70001 z M 674.19977 225.7 L 722.4997599999999 225.7 C 753.19977 225.7 774.69977 221.80001 788.0997399999999 214 C 801.0997399999999 206.2 807.6997199999998 193.5 807.6997199999998 176.2 C 807.6997199999998 158.30001 800.8997299999999 145.89999999999998 787.4997099999998 138.7 C 773.7996999999998 131.5 753.8997299999999 127.89999999999999 727.7996999999998 127.89999999999999 C 719.2996999999998 127.89999999999999 710.1997199999998 127.89999999999999 700.3996799999998 128.2 C 690.5996399999997 128.5 682.0996899999998 128.89999999999998 674.2996999999998 129.80001 C 674.19977 129.8 674.19977 225.7 674.19977 225.7 L 674.19977 225.7 z M 674.19977 301.39999 L 674.19977 415.20001 C 681.39978 416.20001 689.19977 416.80002 697.69977 417.20001 C 706.19977 417.6 715.59979 417.90002000000004 725.7997499999999 417.90002000000004 C 755.4997599999999 417.90002000000004 779.2997499999999 413.70001 797.5997399999999 405.20001 C 815.8997299999999 396.70001 824.9997599999999 381.1 824.9997599999999 358.20001 C 824.9997599999999 338 817.4997599999999 323.30002 802.19977 314.80002 C 786.89978 306.00003000000004 764.9997599999999 301.80002 736.59979 301.80002 L 674.2998 301.80002 L 674.2998 301.40003 L 674.19977 301.39999 L 674.19977 301.39999 z" stroke-linecap="round" />
</g>
		<g transform="matrix(1 0 0 1 -846.4 -2.7)" id="Layer_1"  >
<path style="stroke: none; stroke-width: 1; stroke-dasharray: none; stroke-linecap: butt; stroke-dashoffset: 0; stroke-linejoin: miter; stroke-miterlimit: 4; fill: rgb(255,255,255); fill-rule: nonzero; opacity: 1;" vector-effect="non-scaling-stroke"  transform=" translate(-1010.1, -249.7)" d="M 1066.89978 62.3 C 1066.89978 79.6 1061.39978 93.3 1049.89978 103.39999 C 1038.7998 113.49999 1025.39978 118.39999 1010.09979 118.39999 C 995.39978 118.59999 981.19977 113.29999000000001 970.2998 103.39999 C 959.19982 93.29999000000001 953.2998 79.89999 953.2998 62.29999 C 953.2998 44.99999 958.7998 31.29999 970.2998 21.19999 C 981.19982 11.399989999999999 995.39978 5.99999 1010.09979 6.19999 C 1024.7998 5.9999899999999995 1038.99975 11.29999 1049.89978 21.19999 C 1061.2998 31.3 1066.89978 45 1066.89978 62.3 z M 1057.7998 493.20001 L 963.19982 493.20001 L 963.19982 158.8 L 1057.7998 158.8 L 1057.7998 493.20001 z" stroke-linecap="round" />
</g>
		<g transform="matrix(1 0 0 1 -637.1 28.2)" id="Layer_1"  >
<path style="stroke: none; stroke-width: 1; stroke-dasharray: none; stroke-linecap: butt; stroke-dashoffset: 0; stroke-linejoin: miter; stroke-miterlimit: 4; fill: rgb(255,255,255); fill-rule: nonzero; opacity: 1;" vector-effect="non-scaling-stroke"  transform=" translate(-1219.4, -280.6)" d="M 1108.69971 75.6 L 1203.29969 60.3 L 1203.29969 158.8 L 1317.09974 158.8 L 1317.09974 237.70001000000002 L 1203.29969 237.70001000000002 L 1203.29969 355.1 C 1203.29969 374.99999 1206.89967 390.99999 1213.69971 402.70001 C 1220.4997500000002 414.40003 1234.89966 420.6 1256.0997300000001 420.6 C 1266.5997300000001 420.49999 1277.0997300000001 419.6 1287.3997800000002 417.70001 C 1297.4997600000002 415.90002000000004 1307.3997800000002 413.30002 1317.0997300000001 409.90002000000004 L 1330.4997500000002 483.60003000000006 C 1318.0997300000001 488.60003000000006 1305.2998000000002 492.70004000000006 1292.2998000000002 495.70004000000006 C 1278.2998000000002 499.00003000000004 1261.2998000000002 500.9000500000001 1240.7998000000002 500.9000500000001 C 1214.9997500000002 500.9000500000001 1193.4997500000002 497.3000400000001 1176.4997500000002 490.5000600000001 C 1159.4997500000002 483.70008000000007 1145.7998000000002 473.9000500000001 1135.6997000000001 461.1000700000001 C 1125.5997200000002 448.70008000000007 1118.39965 433.40006000000005 1114.4997500000002 415.8000800000001 C 1110.2998000000002 396.4000900000001 1108.1997000000001 376.6000700000001 1108.2998000000002 356.8000800000001 L 1108.2998000000002 75.6 L 1108.69971 75.6 z" stroke-linecap="round" />
</g>
		<g transform="matrix(1 0 0 1 -391.2 74.05)" id="Layer_1"  >
<path style="stroke: none; stroke-width: 1; stroke-dasharray: none; stroke-linecap: butt; stroke-dashoffset: 0; stroke-linejoin: miter; stroke-miterlimit: 4; fill: rgb(255,255,255); fill-rule: nonzero; opacity: 1;" vector-effect="non-scaling-stroke"  transform=" translate(-1465.3, -326.45)" d="M 1330.49976 326.10001 C 1330.29981 302.9 1334.29981 279.80002 1342.1997099999999 257.90003 C 1349.59973 237.20003000000003 1361.09973 218.20003000000003 1376.09973 202.10003 C 1390.7996799999999 186.10003 1408.99975 173.70004 1430.1997099999999 164.30003 C 1451.3996599999998 154.80003 1475.49976 150.30003 1502.59973 150.30003 C 1520.49975 150.30003 1536.7996799999999 151.90004 1551.49975 155.20002 C 1566.2998 158.40001999999998 1580.6997 163.00002 1594.59973 168.90001999999998 L 1574.99975 244.60001999999997 C 1565.39977 241.10001999999997 1555.59973 238.10001999999997 1545.59973 235.80001999999996 C 1533.89978 233.10001999999997 1521.99975 231.80001999999996 1509.99975 231.90002999999996 C 1481.89977 231.90002999999996 1461.09973 240.70002999999997 1447.39977 258.00001999999995 C 1433.69981 275.30000999999993 1426.89977 298.10002999999995 1426.89977 326.50001999999995 C 1426.89977 356.50001999999995 1433.39977 380.00001999999995 1446.09972 396.30000999999993 C 1459.09972 412.9000199999999 1481.6997 421.0999999999999 1513.59972 421.0999999999999 C 1525.99974 421.0999999999999 1538.2996699999999 419.9999899999999 1550.49974 417.80000999999993 C 1562.89976 415.9000199999999 1575.09972 412.50001999999995 1586.69969 407.69999999999993 L 1600.09971 485.30000999999993 C 1586.69969 490.69999999999993 1572.89976 494.69999999999993 1558.69969 497.4000199999999 C 1540.59971 500.9000199999999 1522.2996699999999 502.7000099999999 1503.8996399999999 502.60002999999995 C 1473.19969 502.60002999999995 1447.0995899999998 498.00001999999995 1424.9996199999998 488.9000199999999 C 1402.7996699999999 479.80000999999993 1384.8996399999999 467.4000199999999 1370.4996199999998 451.7000099999999 C 1356.0995999999998 435.9999999999999 1345.9996199999998 417.4999999999999 1339.4996199999998 396.2000099999999 C 1333.59973 373.29999 1330.59973 349.79999 1330.49976 326.10001 z" stroke-linecap="round" />
</g>
		<g transform="matrix(1 0 0 1 -94.65 73.75)" id="Layer_1"  >
<path style="stroke: none; stroke-width: 1; stroke-dasharray: none; stroke-linecap: butt; stroke-dashoffset: 0; stroke-linejoin: miter; stroke-miterlimit: 4; fill: rgb(255,255,255); fill-rule: nonzero; opacity: 1;" vector-effect="non-scaling-stroke"  transform=" translate(-1761.85, -326.15)" d="M 1926.09973 325.5 C 1926.09973 351.89999 1922.1997099999999 375.70001 1914.6997099999999 397.60001 C 1907.1997099999999 419.50001 1896.09973 438 1881.79968 453.39999 C 1867.1997000000001 468.89999 1849.49963 481.1 1829.89966 489.29998 C 1809.59961 497.79998 1787.19971 501.99999 1762.39966 501.99999 C 1737.89966 501.99999 1715.39966 497.79998 1695.19971 489.29998 C 1675.4997600000002 481.19997 1657.89966 468.89999 1643.29969 453.39999 C 1628.89967 438.1 1617.49964 419.19998 1609.69971 397.6 C 1601.4997600000002 375.70001 1597.5997300000001 351.6 1597.5997300000001 325.49999 C 1597.5997300000001 299.1 1601.79968 275.29998 1609.9997500000002 253.69999 C 1618.1997000000001 232.19999 1629.5997300000001 213.60000000000002 1644.1997000000001 198.60000000000002 C 1658.9997500000002 183.3 1676.6997000000001 171.10000000000002 1696.39965 162.99999000000003 C 1716.5996 154.49999000000003 1738.49963 150.29999000000004 1762.29967 150.29999000000004 C 1786.39965 150.29999000000004 1808.5997200000002 154.49999000000003 1828.79967 162.99999000000003 C 1848.99962 171.49999000000003 1866.29967 183.19999 1880.6996900000001 198.60000000000002 C 1895.4997400000002 214.49999000000003 1906.9997400000002 233.20001000000002 1914.29967 253.70001000000002 C 1921.89978 275.29999 1926.09973 299.10001 1926.09973 325.5 z M 1829.59973 325.5 C 1829.59973 296.10001 1823.6997099999999 273.29999 1811.99975 256.70001 C 1800.29979 240.10003000000006 1783.59973 231.60000000000002 1762.09973 231.60000000000002 C 1740.59973 231.60000000000002 1723.59973 240.10000000000002 1711.89978 256.70001 C 1700.19983 273.30002 1693.99976 296.5 1693.99976 325.5 C 1693.99976 354.89999 1699.89978 378 1711.89978 395 C 1723.59973 412.29999 1740.59973 420.79999 1762.09973 420.79999 C 1783.59973 420.79999 1800.2996799999999 412.29999 1811.99975 395 C 1823.69982 377.70001 1829.59973 354.5 1829.59973 325.5 z" stroke-linecap="round" />
</g>
		<g transform="matrix(1 0 0 1 154.4 -2.7)" id="Layer_1"  >
<path style="stroke: none; stroke-width: 1; stroke-dasharray: none; stroke-linecap: butt; stroke-dashoffset: 0; stroke-linejoin: miter; stroke-miterlimit: 4; fill: rgb(255,255,255); fill-rule: nonzero; opacity: 1;" vector-effect="non-scaling-stroke"  transform=" translate(-2010.9, -249.7)" d="M 2067.69971 62.3 C 2067.69971 79.6 2062.19971 93.3 2050.69971 103.39999 C 2039.59973 113.49999 2026.1997099999999 118.39999 2010.8996599999998 118.39999 C 1996.1997099999999 118.59999 1981.9996399999998 113.29999000000001 1971.0996099999998 103.39999 C 1959.9996299999998 93.29999000000001 1954.0996099999998 79.89999 1954.0996099999998 62.29999 C 1954.0996099999998 44.99999 1959.5996099999998 31.29999 1971.0996099999998 21.19999 C 1981.9996299999998 11.399989999999999 1996.1995899999997 5.99999 2010.8996599999998 6.19999 C 2025.5996099999998 5.9999899999999995 2039.7996799999999 11.29999 2050.69971 21.19999 C 2062.09985 31.3 2067.69971 45 2067.69971 62.3 z M 2058.89966 493.20001 L 1964.29968 493.20001 L 1964.29968 158.8 L 2058.89966 158.8 L 2058.89966 493.20001 z" stroke-linecap="round" />
</g>
		<g transform="matrix(1 0 0 1 400.2 69.55)" id="Layer_1"  >
<path style="stroke: none; stroke-width: 1; stroke-dasharray: none; stroke-linecap: butt; stroke-dashoffset: 0; stroke-linejoin: miter; stroke-miterlimit: 4; fill: rgb(255,255,255); fill-rule: nonzero; opacity: 1;" vector-effect="non-scaling-stroke"  transform=" translate(-2256.7, -321.95)" d="M 2112.69971 170.2 C 2128.69971 165.59999 2149.5996099999998 161.09999 2174.9997599999997 157.2 C 2201.3996599999996 153.09999 2228.09986 151 2254.8996599999996 151 C 2283.2995599999995 151 2306.7995599999995 154.60001 2325.6997099999994 162.10001 C 2344.5998599999994 169.60001 2359.5996099999993 180 2370.3996599999996 193.40001 C 2381.4997599999997 207.10001 2389.2995599999995 223.10001 2393.8996599999996 241.70001000000002 C 2398.4997599999997 260.30001000000004 2400.6997099999994 281.20001 2400.6997099999994 304 L 2400.6997099999994 492.89999 L 2306.0996099999993 492.89999 L 2306.0996099999993 315.39999 C 2306.0996099999993 284.69998 2302.1997099999994 263.19998 2293.999509999999 250.5 C 2285.799309999999 237.80002000000002 2270.799559999999 231.60001 2248.999509999999 231.60001 C 2242.1994599999994 231.60001 2234.999509999999 231.90001 2227.499509999999 232.60001 C 2219.999509999999 233.30001 2213.0996099999993 233.90001 2207.299559999999 234.90001 L 2207.299559999999 492.90001 L 2112.699459999999 492.90001 L 2112.69971 170.2 L 2112.69971 170.2 z" stroke-linecap="round" />
</g>
		<g transform="matrix(1 0 0 1 766.9 20)" id="Layer_1"  >
<path style="stroke: none; stroke-width: 1; stroke-dasharray: none; stroke-linecap: butt; stroke-dashoffset: 0; stroke-linejoin: miter; stroke-miterlimit: 4; fill: rgb(255,255,255); fill-rule: nonzero; opacity: 1;" vector-effect="non-scaling-stroke"  transform=" translate(-2623.4, -272.4)" d="M 2659.39966 502 C 2587.59961 502 2533.19971 482.10001 2495.69971 442.29999 C 2458.19971 402.49996999999996 2439.5996099999998 346.09997999999996 2439.5996099999998 272.69998 C 2439.5996099999998 236.19997999999998 2445.4995099999996 203.89997999999997 2456.8996599999996 175.19997999999998 C 2468.2998099999995 146.49998 2483.9997599999997 122.39997999999999 2503.8996599999996 102.79997999999998 C 2524.0996099999998 82.99997999999998 2548.3996599999996 67.69997999999998 2574.9997599999997 58.099979999999974 C 2602.3996599999996 47.99997999999997 2632.3996599999996 42.79997999999998 2664.69971 42.79997999999998 C 2683.29981 42.79997999999998 2700.29981 44.099979999999974 2715.5996099999998 46.99997999999998 C 2729.19971 49.19997999999998 2742.5996099999998 52.39997999999998 2755.69971 56.49997999999998 C 2765.4997599999997 59.49997999999998 2775.0996099999998 63.19997999999998 2784.39966 67.59997999999997 C 2791.89966 71.49997999999998 2797.39966 74.39997999999997 2800.99976 76.39997999999997 L 2772.29981 156.29997999999998 C 2757.19971 148.49997999999997 2741.39991 142.39998999999997 2724.99976 137.99997999999997 C 2707.0998600000003 132.79997999999998 2686.49976 130.49997999999997 2663.6997100000003 130.49997999999997 C 2648.49976 130.49997999999997 2633.3996600000005 133.09998999999996 2618.99976 137.99997999999997 C 2604.39966 143.19997999999995 2591.1997100000003 151.59998999999996 2580.1997100000003 162.49997999999997 C 2569.09961 173.59998999999996 2559.99976 188.29997999999998 2553.09961 205.89998999999997 C 2546.2995600000004 223.79997999999998 2542.99951 245.39998999999997 2542.99951 270.79998 C 2542.89941 289.89999 2545.09961 308.99999 2549.49951 327.59997 C 2554.09961 345.19998 2561.1994600000003 360.19998 2570.99951 372.89995999999996 C 2581.39941 385.99996999999996 2594.79956 396.39995999999996 2610.09961 403.19994999999994 C 2626.09961 410.69994999999994 2645.6997100000003 414.29995999999994 2668.49951 414.29995999999994 C 2681.49951 414.29995999999994 2694.39941 413.49996999999996 2707.29956 411.69994999999994 C 2717.69946 410.29995999999994 2727.89966 408.29995999999994 2737.99951 405.4999399999999 C 2745.99951 403.4999399999999 2753.89941 400.8999299999999 2761.49951 397.69994999999994 C 2768.29956 394.79995999999994 2774.49951 391.79995999999994 2779.79956 389.4999399999999 L 2807.19946 469.0999499999999 C 2793.19946 477.5999499999999 2773.5993599999997 485.0999499999999 2748.19946 491.8999399999999 C 2722.2998 498.70001 2692.69971 502 2659.39966 502 z" stroke-linecap="round" />
</g>
		<g transform="matrix(1 0 0 1 1100.4 72.6)" id="Layer_1"  >
<path style="stroke: none; stroke-width: 1; stroke-dasharray: none; stroke-linecap: butt; stroke-dashoffset: 0; stroke-linejoin: miter; stroke-miterlimit: 4; fill: rgb(255,255,255); fill-rule: nonzero; opacity: 1;" vector-effect="non-scaling-stroke"  transform=" translate(-2956.9, -325)" d="M 2955.59985 150 C 2983.69995 150 3006.7998000000002 153.3 3025.3999 159.5 C 3043.9999999999995 165.7 3059 174.8 3070.09985 186.89999 C 3081.49975 199.09999 3089.59985 213.89999 3093.8999 230 C 3098.5 247 3100.6999499999997 265.89999 3100.6999499999997 286.39999 L 3100.6999499999997 483.39999 C 3086.9999999999995 486.29998 3068.3999 489.89999 3044.30005 493.79998 C 3020.2001999999998 497.69997 2990.80005 500 2956.6001 500 C 2935.1001 500 2915.5 498 2897.90015 494.10001 C 2880.30005 490.20002 2865.30005 484 2852.6001 475.5 C 2840 466.89999 2829.90015 455.29999 2823.2002 441.60001 C 2816.4001500000004 427.60001 2813.1001 410.60001 2813.1001 390.10001 C 2813.1001 370.5 2817 354.20002 2824.8000500000003 340.5 C 2832.19995 327.20001 2843.0000000000005 316.10001 2856.1001 308.20001 C 2869.1001 300 2884.2002 294.20001 2901.1001 290.6 C 2918.5 286.89999 2936.2002 285.1 2953.90015 285.1 C 2966.30005 285.1 2977.1001 285.80001000000004 2986.50025 286.70001 C 2996.00025 287.70001 3003.8003 289 3009.7002 290.90002000000004 L 3009.7002 282.10003000000006 C 3009.7002 266.10003000000006 3004.8003000000003 253.10003000000006 2995.00025 243.30003000000005 C 2985.2001999999998 233.50003000000004 2968.3003 228.60003000000006 2944.10035 228.60003000000006 C 2928.2004500000003 228.60003000000006 2912.3003000000003 229.80003000000005 2896.50025 232.20004000000006 C 2880.8003 234.50004000000007 2867.10035 237.70004000000006 2855.7002 242.00004000000007 L 2843.6001 165.70004000000006 C 2849.1001 164.10003000000006 2856 162.10003000000006 2864.1001 160.20004000000006 C 2872.3000500000003 158.20004000000006 2881.40015 156.60003000000006 2891.2002 155.00004000000007 C 2901.0002500000005 153.40005000000008 2911.1001 152.40003000000007 2921.9001500000004 151.10005000000007 C 2933.39966 150.7 2944.49976 150 2955.59985 150 z M 2963.09985 426.89999 C 2972.59985 426.89999 2981.3999 426.6 2989.7998000000002 426.19998 C 2996.59985 426.09997 3003.2998000000002 425.39999 3009.9997500000004 424.19998 L 3009.9997500000004 352.39995999999996 C 3006.0998500000005 351.39995999999996 3000.4997500000004 350.79994999999997 2992.6997000000006 349.79994999999997 C 2985.7998000000007 348.89995999999996 2978.7998000000007 348.49996 2971.7998000000007 348.49996 C 2963.399900000001 348.59997 2954.999750000001 349.09997 2946.6997000000006 350.09997 C 2938.8996500000007 351.09997 2931.9997500000004 352.99996 2926.1997000000006 356.29998 C 2920.4997500000004 358.99999 2915.6997000000006 363.19997 2912.1997000000006 368.39999 C 2908.6997000000006 374.1 2906.8996500000007 380.6 2906.9997500000004 387.29998 C 2906.9997500000004 401.99999 2911.8996500000003 412.39999 2921.9997500000004 417.99999 C 2932.09985 424.29999 2945.7998 426.89999 2963.09985 426.89999 z" stroke-linecap="round" />
</g>
		<g transform="matrix(1 0 0 1 1404.75 73.3)" id="Layer_1"  >
<path style="stroke: none; stroke-width: 1; stroke-dasharray: none; stroke-linecap: butt; stroke-dashoffset: 0; stroke-linejoin: miter; stroke-miterlimit: 4; fill: rgb(255,255,255); fill-rule: nonzero; opacity: 1;" vector-effect="non-scaling-stroke"  transform=" translate(-3261.25, -325.7)" d="M 3247.7998 425.29999 C 3265.0998499999996 425.29999 3277.49975 423.69998 3284.6996999999997 420.09997999999996 C 3291.89965 416.79999 3295.4997499999995 409.99996999999996 3295.4997499999995 400.49996999999996 C 3295.4997499999995 392.99996999999996 3290.8996499999994 386.09997999999996 3281.4997499999995 380.59997999999996 C 3271.9997499999995 374.69998999999996 3257.9997499999995 368.49996999999996 3238.7997999999993 361.39996999999994 C 3224.099849999999 355.89996999999994 3210.3998999999994 350.29995999999994 3198.3998999999994 344.09997999999996 C 3186.2997999999993 338.19998999999996 3175.8998999999994 331.09997999999996 3167.6999499999993 322.89996999999994 C 3159.099849999999 314.49997999999994 3152.499999999999 304.39996999999994 3148.099849999999 293.1999599999999 C 3143.499749999999 281.7999699999999 3141.2997999999993 268.0999499999999 3141.2997999999993 251.79996999999992 C 3141.2997999999993 220.4999699999999 3152.9997499999995 195.69995999999992 3176.199699999999 177.3999799999999 C 3199.399649999999 159.0999999999999 3231.2997999999993 149.9999899999999 3272.099599999999 149.9999899999999 C 3291.699699999999 149.9999899999999 3311.199699999999 151.8999799999999 3330.499499999999 155.4999899999999 C 3349.099599999999 159.0999999999999 3364.099599999999 162.9999899999999 3374.899399999999 167.1999899999999 L 3358.2992999999988 240.8999899999999 C 3346.499249999999 236.7999799999999 3334.5993499999986 233.3999899999999 3322.399399999999 230.7999799999999 C 3308.099349999999 227.6999699999999 3293.599349999999 226.0999799999999 3278.999499999999 226.1999699999999 C 3249.299549999999 226.1999699999999 3234.599599999999 234.39996999999988 3234.599599999999 250.9999699999999 C 3234.499499999999 254.4999699999999 3235.199699999999 257.8999799999999 3236.599599999999 261.0999599999999 C 3238.2995499999993 264.4999499999999 3240.899649999999 267.4999499999999 3244.099599999999 269.5999599999999 C 3249.099599999999 272.9999499999999 3254.2995499999993 275.8999499999999 3259.7995499999993 278.3999499999999 C 3267.8996499999994 282.3999499999999 3276.2995499999993 285.7999399999999 3284.8996499999994 288.7999399999999 C 3305.7995499999993 296.59992999999986 3322.699699999999 304.09992999999986 3336.3996499999994 311.59992999999986 C 3350.0995999999996 319.09992999999986 3360.4997499999995 327.2999399999999 3368.3996499999994 335.69993999999986 C 3375.8996499999994 343.99992999999984 3381.5995999999996 353.69993999999986 3384.9997499999995 364.3999499999999 C 3388.2997999999993 374.7999399999999 3389.8996499999994 387.19993999999986 3389.8996499999994 401.2999399999999 C 3389.8996499999994 434.1999299999999 3377.4997499999995 459.3999499999999 3352.699699999999 475.9999499999999 C 3327.8996499999994 492.9999499999999 3292.999749999999 501.3999399999999 3247.699699999999 501.3999399999999 C 3217.999749999999 501.3999399999999 3193.199699999999 498.7999299999999 3173.699699999999 493.8999399999999 C 3154.099599999999 488.6999299999999 3140.3996499999994 484.3999399999999 3132.599599999999 481.1999299999999 L 3148.599599999999 404.1999299999999 C 3164.699699999999 410.49991999999986 3181.2995499999993 415.49991999999986 3198.199699999999 419.1999299999999 C 3214.49976 423.29999 3231.09985 425.29999 3247.7998 425.29999 z" stroke-linecap="round" />
</g>
		<g transform="matrix(1 0 0 1 1712.5 -5.8)" id="Layer_1"  >
<path style="stroke: none; stroke-width: 1; stroke-dasharray: none; stroke-linecap: butt; stroke-dashoffset: 0; stroke-linejoin: miter; stroke-miterlimit: 4; fill: rgb(255,255,255); fill-rule: nonzero; opacity: 1;" vector-effect="non-scaling-stroke"  transform=" translate(-3569, -246.6)" d="M 3424.99976 493.20001 L 3424.99976 15.3 L 3519.5998600000003 0 L 3519.5998600000003 160.2 C 3527.5998600000003 157.7 3535.7998100000004 155.59999 3544.0998600000003 154 C 3553.5998600000003 152.10001 3563.39991 151.10001 3573.0998600000003 151.10001 C 3600.1999600000004 151.10001 3622.6999600000004 154.70002 3640.5998600000003 162.20002 C 3658.49976 169.70002 3672.89991 180.10001 3683.6999600000004 193.50002 C 3694.50001 207.20002 3702.00001 223.20002 3706.50001 241.80002000000002 C 3711.1001100000003 260.40003 3713.00001 281.30002 3713.00001 304.10001 L 3713.00001 493 L 3618.39991 493 L 3618.39991 315.39999 C 3618.39991 284.69998 3614.50001 263.19998 3606.69996 250.5 C 3598.8999099999996 237.80002000000002 3584.19996 231.60001 3563.30006 231.60001 C 3555.30006 231.5 3547.30006 232.30001 3539.50001 233.90001 C 3532.00001 235.50002 3525.50001 236.8 3519.6001100000003 238.8 L 3519.6001100000003 492.90002000000004 L 3424.9997700000004 492.90002000000004 L 3424.9997700000004 493.20001 L 3424.99976 493.20001 z" stroke-linecap="round" />
</g>
		<g transform="matrix(1 0 0 1 -1610.07 -44.04)" id="Layer_1"  >
<path style="stroke: none; stroke-width: 1; stroke-dasharray: none; stroke-linecap: butt; stroke-dashoffset: 0; stroke-linejoin: miter; stroke-miterlimit: 4; fill: rgb(255,255,255); fill-rule: nonzero; opacity: 1;" vector-effect="non-scaling-stroke"  transform=" translate(-246.43, -208.36)" d="M 281.30002 196.39999 C 269.90003 164.19999 226.20001000000002 182.09999 211.10002000000003 186 L 225.30002000000002 239.2 C 240.40001 235.3 286.89999 231.2 281.30002 196.39999 z" stroke-linecap="round" />
</g>
		<g transform="matrix(1 0 0 1 -1583.67 38.18)" id="Layer_1"  >
<path style="stroke: none; stroke-width: 1; stroke-dasharray: none; stroke-linecap: butt; stroke-dashoffset: 0; stroke-linejoin: miter; stroke-miterlimit: 4; fill: rgb(255,255,255); fill-rule: nonzero; opacity: 1;" vector-effect="non-scaling-stroke"  transform=" translate(-272.83, -290.58)" d="M 231.20001 266.29999 L 246.90000999999998 324.9 C 265 320.19998999999996 319.39999 315.4 314.10001 276.19998999999996 C 305.20001 241.60001 249.40001 261.5 231.20001 266.29999 z" stroke-linecap="round" />
</g>
		<g transform="matrix(1 0 0 1 -1607.3 2.8)" id="Layer_1"  >
<path style="stroke: none; stroke-width: 1; stroke-dasharray: none; stroke-linecap: butt; stroke-dashoffset: 0; stroke-linejoin: miter; stroke-miterlimit: 4; fill: rgb(255,255,255); fill-rule: nonzero; opacity: 1;" vector-effect="non-scaling-stroke"  transform=" translate(-249.2, -255.2)" d="M 249.20001 6 C 111.6 6 0 117.6 0 255.2 C 0 392.79999999999995 111.6 504.4 249.20001 504.4 C 386.80002 504.4 498.39999 392.79999 498.39999 255.2 C 498.39999 117.60001 386.80002 6 249.20001 6 z M 302.70001 344.60001 L 314.1 388.80002 L 287.39999 395.70001 L 276 351.30002 C 269 353.10001 262 354.90003 254.60001 356.60001 L 266 401.20001 L 239.39999 408.1 L 227.89999 363.80001000000004 C 221.59999 365.30001000000004 174.09999 377.50002000000006 174.09999 377.50002000000006 L 171.2 344.30002 C 171.2 344.30002 191 339.50003000000004 190.59999 339.30002 C 198.09999 337.40003 198.7 331.40003 198.29998999999998 327.90003 L 167.29998999999998 207.90003000000002 C 164.79998999999998 202.80002000000002 159.69997999999998 197.40003000000002 148.89999999999998 200.20003000000003 C 149.09999999999997 199.70003000000003 129.50000999999997 205.20003000000003 129.50000999999997 205.20003000000003 L 122.09999999999998 176.70003000000003 C 122.09999999999998 176.70003000000003 170.10001999999997 164.30004000000002 175.80001 162.70003000000003 L 164.50000999999997 118.90003000000003 L 191.20000999999996 112.00003000000002 L 202.40000999999995 155.40003000000002 C 209.50001999999995 153.40003000000002 216.70000999999996 151.90003000000002 223.70000999999996 150.10003 L 212.60001 106.4 L 239.30001 99.5 L 250.60001 143.3 C 285.80002 137.5 314.5 143.40001 327 171.8 C 335.20001 194.3 328.39999 211.60000000000002 315.20001 223.60000000000002 C 336.90002000000004 225.8 362.90002000000004 245.40000000000003 366.70001 269.20001 C 372.70001 308.79999 343.70001 334.60001 302.70001 344.60001 z" stroke-linecap="round" />
</g>
</g>
</g>
</svg>